<svg xmlns="http://www.w3.org/2000/svg" viewBox="0 0 43.2 25"><g fill="#01733B"><path d="M41.7 13.3L38 9.6c-.1-.1-.3-.2-.5-.2H18c-1.5-2.9-4.5-4.8-7.8-4.8-4.8 0-8.7 3.9-8.7 8.7 0 4.8 3.9 8.7 8.7 8.7 3.4 0 6.4-1.9 7.9-5h3.1c.2 0 .3-.1.4-.2l1.6-1.4 1.7 1.4c.1.1.3.2.4.2h3.5c.2 0 .4-.1.5-.3l.7-.7.5.8c.1.2.3.3.6.3h2.4c.2 0 .4-.1.5-.3l1-1.5 1.1 1.5c.1.2.3.3.5.3h2c.2 0 .3-.1.5-.2l2.6-2.6c.1-.1.2-.3.2-.5s-.1-.4-.2-.5zm-3.4 2.4h-1.4l-1.4-2c-.1-.2-.3-.3-.5-.3s-.4.1-.5.3l-1.3 1.9h-1.7l-.8-1.3c-.1-.2-.3-.3-.5-.3s-.4.1-.6.3l-.9 1.3h-2.9l-2-1.7c-.2-.2-.6-.2-.9 0L21 15.7h-3.3c-.3 0-.5.2-.6.4-1.1 2.8-3.8 4.6-6.8 4.6-4.1 0-7.4-3.3-7.4-7.4 0-4 3.3-7.3 7.4-7.3 2.9 0 5.6 1.7 6.8 4.4.1.2.3.4.6.4h19.7l.9.9H17.9c-.4 0-.7.3-.7.7s.3.7.7.7h21.6l.8.8-2 1.8z"/><path d="M6.6 10.8c-1.3 0-2.4 1.1-2.4 2.4 0 1.3 1.1 2.4 2.4 2.4 1.3 0 2.4-1.1 2.4-2.4.1-1.3-1-2.4-2.4-2.4zm0 3.6c-.6 0-1.1-.5-1.1-1.1 0-.6.5-1.1 1.1-1.1.6 0 1.1.5 1.1 1.1.1.6-.4 1.1-1.1 1.1z"/></g></svg>
